<svg width="140" height="140" viewBox="0 0 140 140" fill="none" xmlns="http://www.w3.org/2000/svg">
<g clip-path="url(#clip0_1623_25312)">
<rect x="37.6999" y="63.5524" width="217.782" height="54.8882" rx="4.42647" stroke="#F5F5F7" stroke-width="8.85294"/>
<path d="M58.946 27.2567C58.946 19.9227 64.8914 13.9773 72.2254 13.9773H220.955C228.289 13.9773 234.234 19.9227 234.234 27.2567V61.7831H58.946V27.2567Z" stroke="#F5F5F7" stroke-width="8.85294"/>
<path d="M58.946 122.869C58.946 120.424 56.9642 118.443 54.5195 118.443C52.0749 118.443 50.0931 120.424 50.0931 122.869H58.946ZM50.0931 129.951C50.0931 132.396 52.0749 134.378 54.5195 134.378C56.9642 134.378 58.946 132.396 58.946 129.951H50.0931ZM50.0931 122.869V129.951H58.946V122.869H50.0931Z" fill="#F5F5F7"/>
<path d="M80.194 55.5858C80.194 48.2518 86.1394 42.3064 93.4735 42.3064H107.638C114.972 42.3064 120.918 48.2518 120.918 55.5858V61.7828H80.194V55.5858Z" stroke="#F5F5F7" stroke-width="8.85294"/>
</g>
<defs>
<clipPath id="clip0_1623_25312">
<rect width="140" height="140" fill="white"/>
</clipPath>
</defs>
</svg>
