<svg width="128" height="36" viewBox="0 0 128 36" fill="none" xmlns="http://www.w3.org/2000/svg">
<path fill-rule="evenodd" clip-rule="evenodd" d="M61.3143 6.67136C61.2588 6.00555 60.9983 5.48623 60.5328 5.11338C60.0743 4.74052 59.3761 4.5541 58.4383 4.5541C57.8409 4.5541 57.3511 4.62401 56.969 4.76383C56.5939 4.89699 56.316 5.08008 56.1354 5.31312C55.9548 5.54615 55.861 5.81247 55.854 6.11208C55.8401 6.35843 55.8853 6.58147 55.9895 6.78121C56.1006 6.9743 56.2743 7.15074 56.5105 7.31053C56.7467 7.46366 57.0489 7.60348 57.4171 7.72999C57.7853 7.85649 58.2229 7.96967 58.7301 8.06954L60.4807 8.42908C61.6617 8.66877 62.6725 8.98503 63.5131 9.37785C64.3536 9.77067 65.0414 10.2334 65.5763 10.7661C66.1112 11.292 66.5037 11.8846 66.7538 12.5437C67.0109 13.2029 67.1428 13.922 67.1498 14.701C67.1428 16.0459 66.792 17.1844 66.0973 18.1165C65.4026 19.0487 64.4092 19.7577 63.1171 20.2438C61.8319 20.7298 60.2862 20.9728 58.48 20.9728C56.6251 20.9728 55.0065 20.7098 53.6241 20.1838C52.2486 19.6579 51.1787 18.8489 50.4146 17.757C49.6573 16.6584 49.2752 15.2536 49.2683 13.5425H54.7703C54.805 14.1683 54.9683 14.6943 55.2601 15.1204C55.5518 15.5465 55.9617 15.8694 56.4897 16.0892C57.0246 16.3089 57.6602 16.4187 58.3966 16.4187C59.0149 16.4187 59.5324 16.3455 59.9493 16.199C60.3661 16.0525 60.6822 15.8495 60.8975 15.5898C61.1129 15.3301 61.224 15.0339 61.231 14.701C61.224 14.388 61.1164 14.115 60.9079 13.882C60.7065 13.6423 60.373 13.4293 59.9076 13.2428C59.4421 13.0498 58.8134 12.87 58.0215 12.7035L55.8957 12.2641C54.0061 11.8713 52.516 11.2155 51.4253 10.2967C50.3416 9.37119 49.8032 8.10949 49.8102 6.51156C49.8032 5.21325 50.1645 4.07805 50.8939 3.10598C51.6303 2.12724 52.648 1.3649 53.9471 0.818939C55.2531 0.27298 56.7502 0 58.4383 0C60.1611 0 61.6513 0.276309 62.9087 0.828926C64.1661 1.38154 65.1352 2.16053 65.816 3.1659C66.5037 4.1646 66.8511 5.33309 66.858 6.67136H61.3143ZM7.24525 0.279638H0.0343018V20.7331H5.70302V8.82856H5.86975L10.6215 20.5733H14.0394L18.7911 8.90846H18.9578V20.7331H24.6266V0.279638H17.4156L12.4555 11.8646H12.2054L7.24525 0.279638ZM32.9577 0.279638H26.497L34.3332 14.3015V20.7331H40.0853V14.3015L47.9215 0.279638H41.4608L37.2926 8.58887H37.1259L32.9577 0.279638ZM68.7702 0.279638V4.75384H75.1892V20.7331H80.8996V4.75384H87.3186V0.279638H68.7702ZM92.349 20.7331H86.0968L93.141 0.279638H101.061L108.105 20.7331H101.852L100.619 16.8182H93.5822L92.349 20.7331ZM97.5305 10.9077L99.8388 12.584L98.7971 9.37965L101.524 7.39925H98.1534L97.1117 4.19489L96.07 7.39925H92.6991L95.4262 9.37965L94.3845 12.584L96.7843 10.8414L97.055 10.7533L97.5305 10.9077ZM110.16 0.279638V20.7331H115.954V13.9819H117.959L121.706 20.7331H128L123.666 13.1072C124.773 12.598 125.641 11.8742 126.27 10.9358C126.951 9.93047 127.291 8.6954 127.291 7.23063C127.291 5.77918 126.961 4.53413 126.301 3.49547C125.641 2.45682 124.718 1.66118 123.53 1.10856C122.342 0.555947 120.956 0.279638 119.372 0.279638H110.16ZM115.954 9.66747H117.996C118.677 9.66747 119.257 9.58758 119.737 9.42778C120.223 9.26133 120.595 8.99834 120.852 8.63881C121.116 8.27927 121.248 7.80988 121.248 7.23063C121.248 6.64472 121.116 6.16868 120.852 5.80248C120.595 5.42963 120.223 5.15665 119.737 4.98354C119.257 4.80378 118.677 4.71389 117.996 4.71389H115.954V9.66747Z" fill="#FF3916"/>
<path d="M0 25.4619H0.841413L3.73572 32.1576H3.80584L6.70014 25.4619H7.54156V33.1485H6.85596V26.9444H6.79363L4.10189 33.1485H3.43967L0.747923 26.9444H0.685596V33.1485H0V25.4619Z" fill="#616161"/>
<path d="M11.9376 33.2686C11.3792 33.2686 10.8962 33.1435 10.4885 32.8933C10.0807 32.6406 9.7652 32.2915 9.54186 31.8461C9.32112 31.3982 9.21075 30.8828 9.21075 30.2998C9.21075 29.7193 9.32112 29.2039 9.54186 28.7535C9.7652 28.3006 10.0729 27.9465 10.4651 27.6913C10.8598 27.4336 11.3156 27.3047 11.8324 27.3047C12.157 27.3047 12.4699 27.3623 12.7712 27.4774C13.0724 27.59 13.3425 27.7639 13.5814 27.9991C13.8229 28.2318 14.0138 28.5258 14.1541 28.8811C14.2943 29.2339 14.3644 29.6517 14.3644 30.1347V30.4649H9.68989V29.8757H13.6554C13.6554 29.5054 13.5775 29.1726 13.4217 28.8773C13.2685 28.5796 13.0542 28.3444 12.779 28.1717C12.5063 27.9991 12.1908 27.9127 11.8324 27.9127C11.4532 27.9127 11.1195 28.0103 10.8312 28.2055C10.543 28.4007 10.3171 28.6584 10.1534 28.9787C9.99243 29.2989 9.91063 29.6492 9.90803 30.0296V30.3824C9.90803 30.8403 9.98983 31.2406 10.1534 31.5834C10.3196 31.9237 10.5547 32.1877 10.8585 32.3753C11.1624 32.563 11.522 32.6568 11.9376 32.6568C12.2206 32.6568 12.4686 32.6143 12.6816 32.5292C12.8971 32.4441 13.0776 32.3303 13.223 32.1877C13.3711 32.0425 13.4827 31.8837 13.5581 31.711L14.2164 31.9174C14.1255 32.1601 13.9762 32.3841 13.7684 32.5893C13.5632 32.7944 13.3061 32.9596 12.9971 33.0847C12.6907 33.2073 12.3375 33.2686 11.9376 33.2686Z" fill="#616161"/>
<path d="M20.2007 25.2217L20.563 25.6458C20.3994 25.7984 20.2033 25.9035 19.9748 25.9611C19.7489 26.0161 19.4957 26.0474 19.2152 26.0549C18.9373 26.0624 18.6374 26.0737 18.3153 26.0887C17.8531 26.1112 17.4726 26.2275 17.174 26.4377C16.8753 26.6454 16.6481 26.9457 16.4923 27.3385C16.3391 27.7288 16.243 28.2055 16.204 28.7685H16.2819C16.4819 28.3756 16.7637 28.0766 17.1272 27.8715C17.4934 27.6663 17.8959 27.5637 18.3348 27.5637C18.7945 27.5637 19.2074 27.6725 19.5736 27.8902C19.9423 28.1054 20.2332 28.4219 20.4461 28.8398C20.6617 29.2551 20.7695 29.7618 20.7695 30.3598C20.7695 30.9504 20.6617 31.4645 20.4461 31.9024C20.2306 32.3378 19.9294 32.6743 19.5424 32.912C19.1555 33.1497 18.7023 33.2686 18.1829 33.2686C17.6609 33.2686 17.2038 33.151 16.8117 32.9158C16.4222 32.6781 16.1196 32.329 15.9041 31.8686C15.6911 31.4057 15.5846 30.8365 15.5846 30.1609V29.5567C15.5846 28.213 15.8054 27.2021 16.2469 26.524C16.6884 25.846 17.3675 25.4919 18.2842 25.4619C18.5802 25.4519 18.849 25.4494 19.0905 25.4544C19.3321 25.4569 19.545 25.4456 19.7294 25.4206C19.9138 25.3931 20.0709 25.3268 20.2007 25.2217ZM18.1829 32.6568C18.5698 32.6568 18.9049 32.563 19.1879 32.3753C19.471 32.1852 19.6891 31.9174 19.8424 31.5721C19.9982 31.2268 20.0761 30.8227 20.0761 30.3598C20.0761 29.8994 19.9969 29.5066 19.8385 29.1813C19.6826 28.8561 19.4645 28.6071 19.184 28.4344C18.9036 28.2618 18.575 28.1755 18.1985 28.1755C17.9024 28.1755 17.6362 28.2305 17.3999 28.3406C17.1662 28.4482 16.9662 28.6021 16.8 28.8023C16.6338 29.0024 16.5066 29.2376 16.4183 29.5079C16.33 29.7781 16.2845 30.0746 16.2819 30.3974C16.2819 31.0955 16.4507 31.6472 16.7883 32.0525C17.1285 32.4554 17.5934 32.6568 18.1829 32.6568Z" fill="#616161"/>
<path d="M24.7068 33.2686C24.1484 33.2686 23.6654 33.1435 23.2577 32.8933C22.85 32.6406 22.5344 32.2915 22.3111 31.8461C22.0903 31.3982 21.98 30.8828 21.98 30.2998C21.98 29.7193 22.0903 29.2039 22.3111 28.7535C22.5344 28.3006 22.8422 27.9465 23.2343 27.6913C23.629 27.4336 24.0848 27.3047 24.6016 27.3047C24.9262 27.3047 25.2392 27.3623 25.5404 27.4774C25.8416 27.59 26.1117 27.7639 26.3506 27.9991C26.5922 28.2318 26.783 28.5258 26.9233 28.8811C27.0635 29.2339 27.1336 29.6517 27.1336 30.1347V30.4649H22.4591V29.8757H26.4247C26.4247 29.5054 26.3468 29.1726 26.1909 28.8773C26.0377 28.5796 25.8235 28.3444 25.5482 28.1717C25.2755 27.9991 24.96 27.9127 24.6016 27.9127C24.2224 27.9127 23.8887 28.0103 23.6005 28.2055C23.3122 28.4007 23.0863 28.6584 22.9227 28.9787C22.7617 29.2989 22.6799 29.6492 22.6773 30.0296V30.3824C22.6773 30.8403 22.7591 31.2406 22.9227 31.5834C23.0889 31.9237 23.3239 32.1877 23.6277 32.3753C23.9316 32.563 24.2913 32.6568 24.7068 32.6568C24.9898 32.6568 25.2379 32.6143 25.4508 32.5292C25.6663 32.4441 25.8468 32.3303 25.9923 32.1877C26.1403 32.0425 26.252 31.8837 26.3273 31.711L26.9856 31.9174C26.8947 32.1601 26.7454 32.3841 26.5376 32.5893C26.3325 32.7944 26.0754 32.9596 25.7663 33.0847C25.4599 33.2073 25.1067 33.2686 24.7068 33.2686Z" fill="#616161"/>
<path d="M28.0734 33.1485V32.5179H28.2604C28.4733 32.5179 28.6447 32.4804 28.7746 32.4054C28.907 32.3278 29.0096 32.1977 29.0823 32.015C29.155 31.8324 29.2096 31.5834 29.2459 31.2681C29.2823 30.9529 29.3109 30.5575 29.3316 30.0821L29.4602 27.3835H33.2621V33.1485H32.5648V28.0141H30.1185L30.0055 30.3073C29.9822 30.7752 29.9432 31.1868 29.8887 31.5421C29.8367 31.8974 29.751 32.1939 29.6316 32.4316C29.5147 32.6693 29.3511 32.8482 29.1408 32.9683C28.933 33.0884 28.6603 33.1485 28.3227 33.1485H28.0734Z" fill="#616161"/>
<path d="M35.6763 29.6092H37.4254C38.098 29.6092 38.6174 29.7668 38.9835 30.0821C39.3497 30.3974 39.5328 30.824 39.5328 31.362C39.5328 31.7198 39.451 32.0325 39.2874 32.3003C39.1238 32.568 38.8848 32.7769 38.5706 32.9271C38.2564 33.0747 37.8746 33.1485 37.4254 33.1485H35.0998V27.3835H35.7932V32.5179H37.4254C37.8487 32.5179 38.1902 32.4204 38.4499 32.2252C38.7096 32.03 38.8394 31.7523 38.8394 31.392C38.8394 31.0242 38.7096 30.7402 38.4499 30.54C38.1902 30.3398 37.8487 30.2397 37.4254 30.2397H35.6763V29.6092Z" fill="#616161"/>
<path d="M42.209 32.0976L42.1388 32.4992C42.0947 32.7694 42.0324 33.0672 41.9519 33.3925C41.8713 33.7177 41.7882 34.0267 41.7025 34.3195C41.6168 34.6122 41.5428 34.8475 41.4805 35.0251H40.9468C40.9806 34.855 41.0234 34.6385 41.0754 34.3758C41.1299 34.1131 41.1857 33.8216 41.2429 33.5013C41.3 33.1835 41.352 32.8557 41.3987 32.5179L41.4532 32.0976H42.209Z" fill="#616161"/>
<path d="M47.1299 33.1485V27.3835H47.8232V29.977H48.4738L50.6981 27.3835H51.594L49.1944 30.1572L51.6486 33.1485H50.7526L48.688 30.6076H47.8232V33.1485H47.1299Z" fill="#616161"/>
<path d="M54.8652 33.2686C54.3484 33.2686 53.8913 33.1422 53.494 32.8895C53.0993 32.6368 52.7902 32.2878 52.5669 31.8424C52.3436 31.3945 52.2319 30.8778 52.2319 30.2923C52.2319 29.7018 52.3436 29.1826 52.5669 28.7347C52.7902 28.2843 53.0993 27.934 53.494 27.6838C53.8913 27.4311 54.3484 27.3047 54.8652 27.3047C55.382 27.3047 55.8378 27.4311 56.2325 27.6838C56.6272 27.9365 56.9363 28.2868 57.1596 28.7347C57.3856 29.1826 57.4985 29.7018 57.4985 30.2923C57.4985 30.8778 57.3868 31.3945 57.1635 31.8424C56.9402 32.2878 56.6298 32.6368 56.2325 32.8895C55.8378 33.1422 55.382 33.2686 54.8652 33.2686ZM54.8652 32.6568C55.2807 32.6568 55.6326 32.5492 55.9209 32.334C56.2091 32.1189 56.4273 31.8324 56.5753 31.4746C56.7259 31.1167 56.8012 30.7227 56.8012 30.2923C56.8012 29.8619 56.7259 29.4666 56.5753 29.1063C56.4273 28.746 56.2091 28.457 55.9209 28.2393C55.6326 28.0216 55.2807 27.9127 54.8652 27.9127C54.4523 27.9127 54.1004 28.0216 53.8095 28.2393C53.5213 28.457 53.3018 28.746 53.1512 29.1063C53.0032 29.4666 52.9292 29.8619 52.9292 30.2923C52.9292 30.7227 53.0032 31.1167 53.1512 31.4746C53.3018 31.8324 53.5213 32.1189 53.8095 32.334C54.0978 32.5492 54.4497 32.6568 54.8652 32.6568Z" fill="#616161"/>
<path d="M58.2153 28.0141V27.3835H62.8898V28.0141H60.9109V33.1485H60.2175V28.0141H58.2153Z" fill="#616161"/>
<path d="M66.3704 33.2686C65.8536 33.2686 65.3965 33.1422 64.9992 32.8895C64.6044 32.6368 64.2954 32.2878 64.0721 31.8424C63.8487 31.3945 63.7371 30.8778 63.7371 30.2923C63.7371 29.7018 63.8487 29.1826 64.0721 28.7347C64.2954 28.2843 64.6044 27.934 64.9992 27.6838C65.3965 27.4311 65.8536 27.3047 66.3704 27.3047C66.8872 27.3047 67.3429 27.4311 67.7377 27.6838C68.1324 27.9365 68.4414 28.2868 68.6648 28.7347C68.8907 29.1826 69.0037 29.7018 69.0037 30.2923C69.0037 30.8778 68.892 31.3945 68.6687 31.8424C68.4453 32.2878 68.135 32.6368 67.7377 32.8895C67.3429 33.1422 66.8872 33.2686 66.3704 33.2686ZM66.3704 32.6568C66.7859 32.6568 67.1378 32.5492 67.426 32.334C67.7143 32.1189 67.9324 31.8324 68.0805 31.4746C68.2311 31.1167 68.3064 30.7227 68.3064 30.2923C68.3064 29.8619 68.2311 29.4666 68.0805 29.1063C67.9324 28.746 67.7143 28.457 67.426 28.2393C67.1378 28.0216 66.7859 27.9127 66.3704 27.9127C65.9575 27.9127 65.6056 28.0216 65.3147 28.2393C65.0264 28.457 64.807 28.746 64.6564 29.1063C64.5083 29.4666 64.4343 29.8619 64.4343 30.2923C64.4343 30.7227 64.5083 31.1167 64.6564 31.4746C64.807 31.8324 65.0264 32.1189 65.3147 32.334C65.603 32.5492 65.9548 32.6568 66.3704 32.6568Z" fill="#616161"/>
<path d="M70.5258 35.3103V27.3835H71.1997V28.4832H71.2815C71.3646 28.3106 71.4789 28.1342 71.6243 27.954C71.7698 27.7714 71.9619 27.6175 72.2009 27.4924C72.4424 27.3673 72.7462 27.3047 73.1124 27.3047C73.6058 27.3047 74.0369 27.4298 74.4057 27.68C74.777 27.9278 75.0653 28.2756 75.2705 28.7234C75.4782 29.1688 75.5821 29.688 75.5821 30.281C75.5821 30.8765 75.4782 31.3982 75.2705 31.8461C75.0653 32.294 74.777 32.6431 74.4057 32.8933C74.0369 33.1435 73.6084 33.2686 73.1202 33.2686C72.7592 33.2686 72.4567 33.206 72.2125 33.0809C71.971 32.9558 71.775 32.8019 71.6243 32.6193C71.4763 32.4341 71.362 32.254 71.2815 32.0788H71.2192V35.3103H70.5258ZM71.2114 30.2698C71.2114 30.7352 71.2828 31.148 71.4257 31.5083C71.5711 31.8661 71.7788 32.1476 72.0489 32.3528C72.3216 32.5555 72.6514 32.6568 73.0384 32.6568C73.4357 32.6568 73.7707 32.5517 74.0434 32.3415C74.3187 32.1289 74.5277 31.8424 74.6706 31.4821C74.816 31.1217 74.8887 30.7177 74.8887 30.2698C74.8887 29.8269 74.8173 29.4278 74.6745 29.0725C74.5342 28.7172 74.3265 28.4357 74.0512 28.228C73.7759 28.0178 73.4383 27.9127 73.0384 27.9127C72.6488 27.9127 72.3177 28.0141 72.045 28.2168C71.7724 28.4169 71.5646 28.6947 71.4218 29.05C71.2815 29.4028 71.2114 29.8094 71.2114 30.2698Z" fill="#616161"/>
<path d="M78.7744 33.2799C78.4134 33.2799 78.0836 33.2123 77.785 33.0772C77.4863 32.9396 77.2487 32.7419 77.0721 32.4842C76.8955 32.2239 76.8072 31.9087 76.8072 31.5384C76.8072 31.2531 76.863 31.0129 76.9747 30.8177C77.0864 30.6226 77.2448 30.4624 77.45 30.3373C77.6551 30.2122 77.8979 30.1134 78.1784 30.0408C78.4589 29.9683 78.7679 29.912 79.1055 29.8719C79.4405 29.8319 79.7236 29.7969 79.9547 29.7668C80.1884 29.7368 80.3663 29.6893 80.4884 29.6242C80.6104 29.5592 80.6715 29.4541 80.6715 29.3089V29.1738C80.6715 28.781 80.5494 28.472 80.3053 28.2468C80.0638 28.0191 79.7158 27.9052 79.2613 27.9052C78.8302 27.9052 78.4783 27.9966 78.2057 28.1792C77.9356 28.3619 77.746 28.5771 77.6369 28.8248L76.9786 28.5958C77.1136 28.2806 77.3006 28.0291 77.5395 27.8414C77.7785 27.6513 78.0459 27.5149 78.342 27.4323C78.6381 27.3473 78.938 27.3047 79.2418 27.3047C79.4704 27.3047 79.708 27.3335 79.9547 27.391C80.204 27.4486 80.4352 27.5487 80.6481 27.6913C80.861 27.8314 81.0337 28.0278 81.1662 28.2806C81.2986 28.5308 81.3649 28.8485 81.3649 29.2339V33.1485H80.6715V32.2365H80.6286C80.5455 32.4066 80.4222 32.5717 80.2586 32.7319C80.0949 32.892 79.8898 33.0234 79.6431 33.126C79.3964 33.2286 79.1068 33.2799 78.7744 33.2799ZM78.8679 32.6681C79.2367 32.6681 79.5561 32.5893 79.8262 32.4316C80.0962 32.274 80.304 32.0651 80.4494 31.8048C80.5975 31.5421 80.6715 31.2531 80.6715 30.9378V30.1046C80.6195 30.1522 80.5325 30.1947 80.4105 30.2322C80.291 30.2698 80.1521 30.3035 79.9937 30.3336C79.8379 30.3611 79.682 30.3849 79.5262 30.4049C79.3704 30.4249 79.2302 30.4424 79.1055 30.4574C78.7679 30.4975 78.4796 30.56 78.2407 30.6451C78.0018 30.7302 77.8187 30.8478 77.6915 30.9979C77.5642 31.1455 77.5006 31.3357 77.5006 31.5684C77.5006 31.9187 77.6304 32.1902 77.8901 32.3828C78.1498 32.573 78.4757 32.6681 78.8679 32.6681Z" fill="#616161"/>
<path d="M86.8087 33.1485V28.0028H85.1609C84.7325 28.0053 84.4065 28.0916 84.1832 28.2618C83.9625 28.4319 83.8521 28.6859 83.8521 29.0237C83.8521 29.3615 83.9573 29.6155 84.1676 29.7856C84.378 29.9532 84.6844 30.0371 85.0869 30.0371H87.0035V30.6676H85.0869C84.674 30.6676 84.3234 30.6038 84.0352 30.4762C83.7495 30.3486 83.5314 30.1622 83.3807 29.917C83.2301 29.6718 83.1548 29.374 83.1548 29.0237C83.1548 28.6709 83.2314 28.3731 83.3846 28.1304C83.5405 27.8852 83.7677 27.7001 84.0663 27.575C84.3676 27.4473 84.7325 27.3835 85.1609 27.3835H87.4709V33.1485H86.8087ZM82.7769 33.1485L84.4987 30.281H85.2583L83.5366 33.1485H82.7769Z" fill="#616161"/>
<path d="M92.4006 35.3103V27.3835H93.0745V28.4832H93.1563C93.2394 28.3106 93.3537 28.1342 93.4991 27.954C93.6446 27.7714 93.8367 27.6175 94.0757 27.4924C94.3172 27.3673 94.621 27.3047 94.9872 27.3047C95.4806 27.3047 95.9117 27.4298 96.2805 27.68C96.6518 27.9278 96.9401 28.2756 97.1452 28.7234C97.353 29.1688 97.4569 29.688 97.4569 30.281C97.4569 30.8765 97.353 31.3982 97.1452 31.8461C96.9401 32.294 96.6518 32.6431 96.2805 32.8933C95.9117 33.1435 95.4832 33.2686 94.995 33.2686C94.634 33.2686 94.3315 33.206 94.0873 33.0809C93.8458 32.9558 93.6497 32.8019 93.4991 32.6193C93.3511 32.4341 93.2368 32.254 93.1563 32.0788H93.094V35.3103H92.4006ZM93.0862 30.2698C93.0862 30.7352 93.1576 31.148 93.3005 31.5083C93.4459 31.8661 93.6536 32.1476 93.9237 32.3528C94.1964 32.5555 94.5262 32.6568 94.9132 32.6568C95.3105 32.6568 95.6455 32.5517 95.9182 32.3415C96.1935 32.1289 96.4025 31.8424 96.5453 31.4821C96.6908 31.1217 96.7635 30.7177 96.7635 30.2698C96.7635 29.8269 96.6921 29.4278 96.5493 29.0725C96.409 28.7172 96.2013 28.4357 95.926 28.228C95.6507 28.0178 95.3131 27.9127 94.9132 27.9127C94.5236 27.9127 94.1925 28.0141 93.9198 28.2168C93.6471 28.4169 93.4394 28.6947 93.2966 29.05C93.1563 29.4028 93.0862 29.8094 93.0862 30.2698Z" fill="#616161"/>
<path d="M100.649 33.2799C100.288 33.2799 99.9584 33.2123 99.6598 33.0772C99.3611 32.9396 99.1235 32.7419 98.9469 32.4842C98.7703 32.2239 98.682 31.9087 98.682 31.5384C98.682 31.2531 98.7378 31.0129 98.8495 30.8177C98.9612 30.6226 99.1196 30.4624 99.3247 30.3373C99.5299 30.2122 99.7727 30.1134 100.053 30.0408C100.334 29.9683 100.643 29.912 100.98 29.8719C101.315 29.8319 101.598 29.7969 101.83 29.7668C102.063 29.7368 102.241 29.6893 102.363 29.6242C102.485 29.5592 102.546 29.4541 102.546 29.3089V29.1738C102.546 28.781 102.424 28.472 102.18 28.2468C101.939 28.0191 101.591 27.9052 101.136 27.9052C100.705 27.9052 100.353 27.9966 100.08 28.1792C99.8104 28.3619 99.6208 28.5771 99.5117 28.8248L98.8534 28.5958C98.9884 28.2806 99.1754 28.0291 99.4143 27.8414C99.6533 27.6513 99.9207 27.5149 100.217 27.4323C100.513 27.3473 100.813 27.3047 101.117 27.3047C101.345 27.3047 101.583 27.3335 101.83 27.391C102.079 27.4486 102.31 27.5487 102.523 27.6913C102.736 27.8314 102.909 28.0278 103.041 28.2806C103.173 28.5308 103.24 28.8485 103.24 29.2339V33.1485H102.546V32.2365H102.503C102.42 32.4066 102.297 32.5717 102.133 32.7319C101.97 32.892 101.765 33.0234 101.518 33.126C101.271 33.2286 100.982 33.2799 100.649 33.2799ZM100.743 32.6681C101.111 32.6681 101.431 32.5893 101.701 32.4316C101.971 32.274 102.179 32.0651 102.324 31.8048C102.472 31.5421 102.546 31.2531 102.546 30.9378V30.1046C102.494 30.1522 102.407 30.1947 102.285 30.2322C102.166 30.2698 102.027 30.3035 101.868 30.3336C101.713 30.3611 101.557 30.3849 101.401 30.4049C101.245 30.4249 101.105 30.4424 100.98 30.4574C100.643 30.4975 100.354 30.56 100.116 30.6451C99.8766 30.7302 99.6935 30.8478 99.5663 30.9979C99.439 31.1455 99.3754 31.3357 99.3754 31.5684C99.3754 31.9187 99.5052 32.1902 99.7649 32.3828C100.025 32.573 100.351 32.6681 100.743 32.6681Z" fill="#616161"/>
<path d="M104.375 34.7887V32.5179H104.893C105.023 32.3778 105.136 32.2264 105.232 32.0638C105.328 31.9012 105.411 31.716 105.481 31.5083C105.554 31.2982 105.615 31.0542 105.665 30.7765C105.714 30.4962 105.755 30.1697 105.789 29.7969L106.007 27.3835H109.548V32.5179H110.436V34.7887H109.743V33.1485H105.072V34.7887H104.375ZM105.692 32.5179H108.855V28.0141H106.654L106.475 29.7969C106.412 30.4024 106.324 30.9303 106.21 31.3807C106.096 31.8311 105.923 32.2102 105.692 32.5179Z" fill="#616161"/>
<path d="M112.241 35.3103C112.103 35.3103 111.975 35.2978 111.855 35.2728C111.736 35.2478 111.641 35.2203 111.571 35.1902L111.758 34.601C111.994 34.6711 112.205 34.6961 112.389 34.6761C112.573 34.6585 112.737 34.5785 112.88 34.4358C113.023 34.2957 113.15 34.0805 113.262 33.7903L113.48 33.2048L111.279 27.3835H112.031L113.807 32.2665H113.862L115.638 27.3835H116.39L113.858 34.0605C113.751 34.3383 113.62 34.5697 113.464 34.7549C113.308 34.9425 113.128 35.0814 112.923 35.1715C112.72 35.2641 112.493 35.3103 112.241 35.3103Z" fill="#616161"/>
<path d="M119.951 33.2686C119.393 33.2686 118.91 33.1435 118.502 32.8933C118.094 32.6406 117.779 32.2915 117.555 31.8461C117.335 31.3982 117.224 30.8828 117.224 30.2998C117.224 29.7193 117.335 29.2039 117.555 28.7535C117.779 28.3006 118.086 27.9465 118.479 27.6913C118.873 27.4336 119.329 27.3047 119.846 27.3047C120.171 27.3047 120.483 27.3623 120.785 27.4774C121.086 27.59 121.356 27.7639 121.595 27.9991C121.836 28.2318 122.027 28.5258 122.168 28.8811C122.308 29.2339 122.378 29.6517 122.378 30.1347V30.4649H117.703V29.8757H121.669C121.669 29.5054 121.591 29.1726 121.435 28.8773C121.282 28.5796 121.068 28.3444 120.792 28.1717C120.52 27.9991 120.204 27.9127 119.846 27.9127C119.467 27.9127 119.133 28.0103 118.845 28.2055C118.556 28.4007 118.331 28.6584 118.167 28.9787C118.006 29.2989 117.924 29.6492 117.922 30.0296V30.3824C117.922 30.8403 118.003 31.2406 118.167 31.5834C118.333 31.9237 118.568 32.1877 118.872 32.3753C119.176 32.563 119.536 32.6568 119.951 32.6568C120.234 32.6568 120.482 32.6143 120.695 32.5292C120.911 32.4441 121.091 32.3303 121.237 32.1877C121.385 32.0425 121.496 31.8837 121.572 31.711L122.23 31.9174C122.139 32.1601 121.99 32.3841 121.782 32.5893C121.577 32.7944 121.32 32.9596 121.011 33.0847C120.704 33.2073 120.351 33.2686 119.951 33.2686Z" fill="#616161"/>
<path d="M123.325 28.0141V27.3835H128V28.0141H126.021V33.1485H125.328V28.0141H123.325Z" fill="#616161"/>
</svg>
