<svg width="11" height="8" viewBox="0 0 11 8" fill="none" xmlns="http://www.w3.org/2000/svg">
<path d="M1.32607 4.22095C1.11672 4.04087 0.801029 4.06459 0.620948 4.27393C0.440866 4.48328 0.464589 4.79897 0.673934 4.97905L1.32607 4.22095ZM3.79 7L3.46393 7.37905L3.80955 7.67636L4.13742 7.35958L3.79 7ZM10.3474 1.35958C10.546 1.16771 10.5515 0.85117 10.3596 0.652579C10.1677 0.453988 9.85117 0.448544 9.65258 0.640419L10.3474 1.35958ZM0.673934 4.97905L3.46393 7.37905L4.11607 6.62095L1.32607 4.22095L0.673934 4.97905ZM4.13742 7.35958L10.3474 1.35958L9.65258 0.640419L3.44258 6.64042L4.13742 7.35958Z" fill="white"/>
</svg>
