<svg width="32" height="32" viewBox="0 0 32 32" fill="none" xmlns="http://www.w3.org/2000/svg">
<path d="M16 1.3335C19.1826 1.3335 22.2348 2.59778 24.4853 4.84821C26.7357 7.09865 28 10.1509 28 13.3335C28 18.3015 24.2133 23.5068 16.8 29.0668C16.5692 29.2399 16.2885 29.3335 16 29.3335C15.7115 29.3335 15.4308 29.2399 15.2 29.0668C7.78667 23.5068 4 18.3015 4 13.3335C4 10.1509 5.26428 7.09865 7.51472 4.84821C9.76516 2.59778 12.8174 1.3335 16 1.3335V1.3335ZM16 9.3335C14.9391 9.3335 13.9217 9.75492 13.1716 10.5051C12.4214 11.2552 12 12.2726 12 13.3335C12 14.3944 12.4214 15.4118 13.1716 16.1619C13.9217 16.9121 14.9391 17.3335 16 17.3335C17.0609 17.3335 18.0783 16.9121 18.8284 16.1619C19.5786 15.4118 20 14.3944 20 13.3335C20 12.2726 19.5786 11.2552 18.8284 10.5051C18.0783 9.75492 17.0609 9.3335 16 9.3335Z" fill="#FF3916"/>
</svg>
